<?xml version="1.0" encoding="utf-8"?>
<!-- Generator: Adobe Illustrator 15.0.0, SVG Export Plug-In . SVG Version: 6.00 Build 0)  -->
<!DOCTYPE svg PUBLIC "-//W3C//DTD SVG 1.1//EN" "http://www.w3.org/Graphics/SVG/1.1/DTD/svg11.dtd">
<svg version="1.1" id="Layer_1" xmlns="http://www.w3.org/2000/svg" xmlns:xlink="http://www.w3.org/1999/xlink" x="0px" y="0px"
	 width="586.16px" height="50.736px" viewBox="0 0 586.16 50.736" enable-background="new 0 0 586.16 50.736" xml:space="preserve">
<g>
	<path d="M66.136,13.169H56.85v-2.553h21.388v2.553h-9.241v27.373h-2.859L66.136,13.169L66.136,13.169z"/>
	<path d="M101.249,10.616h2.859v29.925h-2.859v-9.857H84.924v9.857h-2.86V10.616h2.86v17.515h16.325V10.616z"/>
	<path d="M111.19,10.616h18.042v2.553h-15.182v14.962h13.554v2.508h-13.554v7.35h15.798v2.553H111.19V10.616z"/>
</g>
<path d="M410.77,40.542h-2.861V10.616h6.426c8.098,0,12.322,4.797,12.322,11.267c0,6.424-4.227,11.176-12.322,11.176h-3.562
	L410.77,40.542L410.77,40.542z M414.156,30.509c6.822,0,9.551-3.652,9.551-8.625c0-5.019-2.729-8.714-9.551-8.714h-3.387v17.339
	H414.156z"/>
<path d="M449.932,40.542h-3.477l-5.941-7.658c-0.793,0.133-1.584,0.178-2.465,0.178h-3.65v7.48h-2.861V10.616h6.514
	c8.143,0,12.365,4.797,12.365,11.267c0,4.795-2.375,8.713-6.996,10.34L449.932,40.542z M437.873,30.552
	c6.82,0,9.549-3.652,9.549-8.668c0-5.019-2.77-8.714-9.549-8.714h-3.477v17.382H437.873z"/>
<path d="M490.213,36.491l2.332-1.451c1.102,2.023,2.729,3.258,5.236,3.258c2.904,0,4.973-1.674,4.973-5.633V10.616h2.904v22.136
	c0,5.412-3.344,8.141-7.789,8.141C493.908,40.893,491.576,39.001,490.213,36.491z"/>
<path d="M512.565,10.616h18.043v2.553h-15.184v14.962h13.557v2.508h-13.557v7.35h15.799v2.553h-18.658V10.616z"/>
<path d="M533.465,25.579c0-8.891,6.646-15.314,15.139-15.314c5.061,0,9.064,2.068,11.75,5.589l-2.199,1.584
	c-2.244-2.904-5.414-4.576-9.594-4.576c-6.953,0-12.104,5.456-12.104,12.719c0,7.348,5.236,12.717,12.32,12.717
	c4.312,0,7.789-1.807,10.166-4.975l2.244,1.584c-2.947,3.873-7.129,5.984-12.498,5.984C540.11,40.893,533.42,34.468,533.465,25.579z
	"/>
<path d="M571.922,13.169h-9.285v-2.553h21.389v2.553h-9.242v27.373h-2.859L571.922,13.169L571.922,13.169z"/>
<g>
	<path d="M146.318,10.001h0.221l14.609,16.853l14.435-16.853h0.221v30.541h-4.445V21.134l-10.209,12.189h-0.22l-10.166-12.189
		v19.408h-4.445V10.001L146.318,10.001z"/>
	<path d="M184.026,40.542h-4.752l13.114-30.541h0.265l13.157,30.541h-4.974l-1.716-4.182c0,0-13.334,0-13.378,0L184.026,40.542z
		 M192.475,20.342l-4.974,11.838h9.856C197.404,32.18,192.475,20.342,192.475,20.342z"/>
	<path d="M213.682,20.869v19.672h-4.4V10.177h0.353l19.188,20.109V10.616h4.399v30.365h-0.353L213.682,20.869z"/>
	<path d="M258.74,10.616h4.709v29.925h-4.709v-9.154h-14.347v9.154h-4.709V10.616h4.709v16.591h14.347V10.616z"/>
	<path d="M271.673,40.542h-4.752l13.114-30.541h0.265l13.157,30.541h-4.974l-1.716-4.182c0,0-13.334,0-13.378,0L271.673,40.542z
		 M280.122,20.342l-4.974,11.838h9.856C285.052,32.18,280.122,20.342,280.122,20.342z"/>
	<path d="M300.053,14.797h-8.889v-4.181h22.487v4.181h-8.889v25.745h-4.709V14.797L300.053,14.797z"/>
	<path d="M324.955,14.797h-8.889v-4.181h22.486v4.181h-8.891v25.745h-4.707V14.797L324.955,14.797z"/>
	<path d="M341.016,40.542h-4.752l13.113-30.541h0.264l13.158,30.541h-4.973l-1.719-4.182c0,0-13.332,0-13.377,0L341.016,40.542z
		 M349.465,20.342l-4.973,11.838h9.855C354.393,32.18,349.465,20.342,349.465,20.342z"/>
	<path d="M370.67,20.869v19.672h-4.398V10.177h0.352l19.189,20.109V10.616h4.398v30.365h-0.352L370.67,20.869z"/>
</g>
<path fill="#D31245" stroke="#D31245" stroke-width="0.0152" d="M455.49,16.675c20.004-17.434,36.959,0.34,27.148,13.777
	c0,0-0.641,1.092-2.34,2.281c4.758-2.465,9.262-13.849,2.039-22.006c12.41,9.946,4.41,20.67,4.01,20.606
	c1.035-0.867,1.59-1.555,2.361-2.855c-4.064,10.119-12.336,13.777-21.453,10.152c2.549,1.926,6.514,2.436,10.307,2.889
	c-16.533,2.32-23.52-14.693-16.932-21.177c-3.135,3.028-3.963,5.097-5.07,9.113c-0.76-5.602,4.66-13.02,11.115-15.058
	c7.086-2.353,12.773,1.088,14.229,4.982c-2.049-7.293-11.82-8.822-22.473-2.378c1.635-2.187,7.045-4.851,9.826-4.906
	C466.86,11.697,461.135,13.006,455.49,16.675z"/>
<circle fill="#FFD24F" cx="472.391" cy="24.367" r="5.702"/>
<circle fill="#FFD664" cx="472.391" cy="24.366" r="5.543"/>
<circle fill="#FFD76B" cx="472.391" cy="24.367" r="5.384"/>
<circle fill="#FFD972" cx="472.391" cy="24.367" r="5.223"/>
<circle fill="#FFDB7B" cx="472.391" cy="24.367" r="5.063"/>
<circle fill="#FFDD83" cx="472.391" cy="24.367" r="4.903"/>
<circle fill="#FFDF8A" cx="472.391" cy="24.367" r="4.743"/>
<circle fill="#FFE08E" cx="472.391" cy="24.367" r="4.583"/>
<circle fill="#FFE399" cx="472.391" cy="24.367" r="4.423"/>
<circle fill="#FFE5A2" cx="472.391" cy="24.367" r="4.263"/>
<circle fill="#FFE7AA" cx="472.391" cy="24.367" r="4.103"/>
<circle fill="#FFE9B4" cx="472.391" cy="24.367" r="3.943"/>
<circle fill="#FFEBBB" cx="472.391" cy="24.367" r="3.782"/>
<circle fill="#FFEEC4" cx="472.391" cy="24.366" r="3.623"/>
<circle fill="#FFF0CB" cx="472.391" cy="24.367" r="3.464"/>
<circle fill="#FFF1D0" cx="472.391" cy="24.367" r="3.303"/>
<circle fill="#FFF3D8" cx="472.391" cy="24.367" r="3.143"/>
<circle fill="#FFF5DF" cx="472.391" cy="24.367" r="2.982"/>
<circle fill="#FFF6E2" cx="472.391" cy="24.367" r="2.822"/>
<circle fill="#FFF8EA" cx="472.391" cy="24.367" r="2.661"/>
<circle fill="#FFFAF1" cx="472.391" cy="24.366" r="2.502"/>
<path fill="#FFFFFF" d="M466.871,32.132c0.449,0.465,0.973,0.887,1.574,1.232c0.629,0.365,1.344,0.646,2.15,0.816
	c0.553,0.113,1.146,0.178,1.785,0.174c0.248,0,0.49-0.012,0.727-0.027c0.762-0.057,1.455-0.191,2.08-0.396
	c0.814-0.266,1.52-0.641,2.119-1.09c0.297-0.219,0.564-0.455,0.812-0.705c0.375-0.377,0.697-0.785,0.971-1.205
	c0.562-0.869,0.92-1.795,1.107-2.646c0.23-1.055,0.201-1.988-0.021-2.541c-0.039-0.097-0.066-0.169-0.094-0.214
	c-0.1-0.179-0.133,0.05-0.426,0.786c-0.086,0.215-0.184,0.428-0.289,0.635c-0.586,1.145-1.484,2.178-2.613,2.939
	c-0.859,0.578-1.854,1.004-2.947,1.199c-0.424,0.076-0.859,0.119-1.311,0.123c-0.988,0.008-1.865-0.131-2.648-0.395
	c-1.242-0.418-2.244-1.154-3.061-2.123c-0.742-0.885-1.326-1.965-1.793-3.174c0,0-0.037-0.496-0.312,0.34
	c-0.143,0.438-0.156,1.125-0.014,1.924c0.162,0.91,0.527,1.967,1.139,2.963C466.104,31.231,466.455,31.698,466.871,32.132
	L466.871,32.132z"/>
<path fill="#D31245" d="M470.479,22.862l3.57,0.007c0,0-0.242,5.287-0.295,5.48c-0.055,0.188-0.188,0.311-0.244-0.021
	c-0.336-2.039,0.279-5.018-0.51-5c0,0-0.342,0-0.346,0c-0.299,0-0.311,1.9-0.408,2.207c-0.055,0.167-0.148,0.14-0.201,0.043
	c-0.16-0.278-0.039-2.25-0.402-2.25h-0.312c-0.162,0-0.525,1.264-0.887,1.462c-0.227,0.123-0.371,0.096-0.191-0.128
	c0.18-0.223,0.432-0.885,0.402-1.334c0,0-0.348,0-0.393,0C470.129,23.325,470.479,22.862,470.479,22.862z"/>
<g>
	<path fill="#231F20" d="M35.372,31.423c-0.383-0.371-2.353-7.166-2.479-7.728c-0.129-0.563-0.979-3.365-1.192-3.783
		c-0.212-0.415-0.679-0.926-1.146-1.156c-0.414-0.204-2.521-1.091-3.076-1.469c-0.022-0.171-0.041-0.35-0.037-0.389l-0.031-0.791
		c0,0,0.321-0.511,0.466-1.244c0,0,0.122,0.078,0.234-0.222c0.11-0.301,0.432-1.391,0.053-1.247l0.086-0.921l0.048-0.502
		c0,0,0.011-0.257-0.081-0.528c-0.003-0.009-0.008-0.021-0.012-0.032c-0.002-0.005-0.002-0.011-0.006-0.015
		c-0.001-0.005-0.003-0.009-0.005-0.015c-0.003-0.005-0.005-0.013-0.007-0.019c-0.002-0.004-0.003-0.009-0.006-0.014
		c-0.021-0.046-0.042-0.086-0.065-0.12c-0.126-0.219-0.298-0.402-0.408-0.506c-0.022-0.022-0.049-0.046-0.074-0.069
		c-0.024-0.02-0.037-0.029-0.037-0.029l0,0c-0.025-0.022-0.055-0.044-0.084-0.069c-0.23-0.175-0.682-0.384-1.549-0.384
		c0,0-0.021,0-0.022,0l0,0c-0.868,0-1.317,0.209-1.547,0.384c-0.03,0.025-0.174,0.146-0.196,0.168
		c-0.112,0.104-0.282,0.287-0.41,0.506c-0.021,0.034-0.098,0.205-0.099,0.214c-0.091,0.271-0.083,0.528-0.083,0.528l0.047,0.502
		l0.085,0.921c-0.378-0.144-0.055,0.946,0.056,1.247c0.113,0.3,0.234,0.222,0.234,0.222c0.143,0.733,0.466,1.244,0.466,1.244
		l-0.033,0.791c0.004,0.038-0.014,0.208-0.033,0.376c-0.516,0.37-2.66,1.276-3.077,1.481c-0.47,0.23-0.936,0.741-1.148,1.156
		c-0.214,0.418-1.063,3.22-1.192,3.783c-0.129,0.562-2.428,7.728-2.428,7.728s-1.32,0.725-1.318,1.984
		c0.001,1.436,1.194,1.896,1.616,1.896c1.951,0,8.005-1.65,8.997-1.65c0.995,0,7.846,1.65,9.197,1.65
		c0.486,0,1.483-0.482,1.483-1.916C36.56,32.167,35.755,31.79,35.372,31.423z M23.054,28.423l-4.518,2.129l3.713-9.125l0.934,4.012
		L23.054,28.423z M28.776,28.423l-0.13-2.983l0.933-4.013l3.713,9.125L28.776,28.423z"/>
</g>
<linearGradient id="SVGID_1_" gradientUnits="userSpaceOnUse" x1="8.4812" y1="10.7078" x2="44.1217" y2="40.6137">
	<stop  offset="0" style="stop-color:#9BBD53"/>
	<stop  offset="1" style="stop-color:#B770AD"/>
</linearGradient>
<path fill="url(#SVGID_1_)" d="M43.041,33.599c-0.165-2.231-0.587-4.507-1.253-6.763c-0.101-0.343-0.203-0.683-0.314-1.02
	c-1.269-3.856-3.215-7.58-5.785-11.066l-0.112-0.15c-0.104-0.141-0.209-0.28-0.317-0.42c-2.708-3.551-5.663-6.277-8.781-8.103
	c-0.237-0.139-0.479-0.269-0.721-0.397c-0.942-0.508-1.917-0.939-2.902-1.283c0.013-0.11,0.014-0.209,0.005-0.306
	c-0.082-0.844-0.821-1.467-1.685-1.385c-0.579,0.057-1.072,0.432-1.284,0.967c-1.785-0.224-3.443-0.032-4.896,0.571
	c-1.879,0.78-3.449,2.41-4.42,4.589c-0.883,1.981-1.275,4.345-1.196,7.229l0.004,0.162c0.002,0.078,0.003,0.156,0.007,0.229
	c0.001,0.058,0.005,0.113,0.01,0.169l0.005,0.075c0.131,2.617,0.661,5.311,1.621,8.233l0.028,0.087
	c0.065,0.203,0.13,0.403,0.201,0.604l0.246,0.679l0.283-0.841l-0.099-0.287c-0.086-0.267-0.168-0.534-0.25-0.804
	c-0.817-2.685-1.27-5.332-1.343-7.868l-0.005-0.137c-0.007-0.164-0.013-0.327-0.013-0.5c-0.014-2.805,0.503-5.231,1.537-7.212
	c1.012-1.939,2.666-3.36,4.657-4.001c1.069-0.343,2.245-0.459,3.519-0.347c0,0.029,0.001,0.058,0.003,0.087
	c0.083,0.844,0.831,1.471,1.684,1.386c0.541-0.052,1.006-0.382,1.24-0.872c0.191,0.061,0.421,0.135,0.571,0.188
	c0.698,0.248,1.408,0.551,2.169,0.927c0.247,0.123,0.488,0.25,0.729,0.383c3.188,1.737,6.123,4.393,8.724,7.893
	c0.102,0.139,0.204,0.277,0.304,0.417c1.105,1.533,2.132,3.193,3.053,4.935c1.169,2.214,2.112,4.478,2.802,6.73
	c0.104,0.338,0.206,0.679,0.298,1.021c0.759,2.782,1.113,5.515,1.051,8.12c-0.003,0.16-0.012,0.318-0.021,0.477l-0.01,0.19
	c-0.036,0.702-0.085,1.287-0.157,1.841c-0.276,2.118-1.198,5.981-4.26,8.055c-3.08,2.011-7.023,1.683-11.429-0.919
	c-0.227-0.136-0.45-0.271-0.667-0.412c-0.599-0.379-1.21-0.805-1.815-1.266c-1.711-1.301-3.368-2.916-4.926-4.801l-0.041-0.038
	l-0.048-0.007c-0.05-0.008-0.101-0.015-0.152-0.023l-0.341-0.06l0.225,0.264c1.203,1.415,2.49,2.729,3.825,3.905
	c0.987,0.873,1.99,1.651,2.98,2.314c0.217,0.147,0.438,0.287,0.662,0.425c1.595,0.991,3.139,1.689,4.718,2.133
	c1.029,0.292,2.052,0.44,3.038,0.44c1.707,0,3.243-0.439,4.568-1.307c3.675-2.492,4.501-7.229,4.548-10.772
	c0.002-0.225,0.004-0.441,0.001-0.658C43.109,34.756,43.085,34.2,43.041,33.599z"/>
<linearGradient id="SVGID_2_" gradientUnits="userSpaceOnUse" x1="1.365" y1="29.9607" x2="50.6972" y2="23.9035">
	<stop  offset="0" style="stop-color:#A6003E"/>
	<stop  offset="0.1859" style="stop-color:#B31C42"/>
	<stop  offset="0.5876" style="stop-color:#D5624B"/>
	<stop  offset="1" style="stop-color:#FAB155"/>
</linearGradient>
<path fill="url(#SVGID_2_)" d="M50.155,23.252l-0.088-0.177c-0.166-0.336-0.266-0.54-0.729-1.148
	c0.329-0.326,0.496-0.783,0.451-1.246c-0.084-0.844-0.825-1.465-1.686-1.385c-0.322,0.032-0.628,0.168-0.873,0.389
	c-0.52-0.444-1.14-0.926-1.64-1.274c-0.553-0.387-1.149-0.757-1.821-1.132c-0.152-0.086-0.308-0.167-0.464-0.249l-0.122-0.064
	c-1.743-0.909-3.678-1.662-5.917-2.302c-0.625-0.177-1.305-0.351-2.077-0.529c0,0,0.48,0.712,0.59,0.737
	c2.649,0.606,5.097,1.46,7.28,2.538c0.035,0.018,0.069,0.034,0.104,0.05c0.039,0.018,0.077,0.036,0.117,0.057
	c0.088,0.045,0.175,0.09,0.262,0.136l0.104,0.054c1.053,0.552,2.413,1.459,3.351,2.232c-0.216,0.303-0.314,0.669-0.278,1.043
	c0.082,0.843,0.837,1.464,1.684,1.384c0.213-0.02,0.417-0.086,0.608-0.197c0.058,0.092,0.38,0.616,0.524,0.901
	c0.931,1.844,0.97,3.933,0.107,5.883c-0.779,1.761-2.315,3.427-4.566,4.951c-0.653,0.442-1.356,0.862-2.146,1.283l-0.178,0.088
	c-0.091,0.044-0.181,0.089-0.271,0.135c-2.154,1.087-4.6,1.927-7.27,2.497c-0.389,0.082-0.778,0.157-1.169,0.229
	c-2.284,0.412-4.739,0.642-7.298,0.682c-2.747,0.048-5.463-0.154-8.021-0.59l-0.043-0.008c-0.049-0.011-0.098-0.02-0.141-0.025
	c-3.148-0.549-6.049-1.449-8.622-2.676c-0.161-0.076-0.319-0.157-0.477-0.239l-0.033-0.018c-0.982-0.49-1.91-1.025-2.756-1.589
	c-2.123-1.418-5.594-4.434-5-8.694c0.637-4.035,4.536-6.623,7.764-8.101c0.055-0.025-0.019-0.913-0.046-0.901
	c-1.433,0.627-2.682,1.315-3.817,2.101c-2.601,1.8-4.236,4.081-4.606,6.425C0.282,29.26,4.358,32.8,7.894,34.932
	c0.399,0.241,0.845,0.489,1.401,0.78c0.124,0.066,0.248,0.129,0.373,0.191l0.146,0.074c2.677,1.326,5.715,2.295,9.029,2.88
	c0.05,0.009,0.102,0.017,0.167,0.025c2.419,0.415,4.978,0.625,7.604,0.625c0.419,0,0.838-0.005,1.256-0.016
	c1.949-0.052,3.857-0.221,5.672-0.504c0.389-0.061,0.779-0.127,1.169-0.199c2.861-0.532,5.501-1.369,7.846-2.486
	c0.161-0.077,0.321-0.153,0.481-0.232c1.07-0.537,2.085-1.139,3.018-1.786c2.128-1.488,3.654-3.263,4.414-5.13
	C51.239,27.273,51.127,25.177,50.155,23.252z"/>
<linearGradient id="SVGID_3_" gradientUnits="userSpaceOnUse" x1="8.1614" y1="27.4832" x2="44.809" y2="22.9834">
	<stop  offset="0" style="stop-color:#81C0E6"/>
	<stop  offset="1" style="stop-color:#50426B"/>
</linearGradient>
<path fill="url(#SVGID_3_)" d="M43.043,10.74c-0.635-2.135-1.811-4.018-3.399-5.444c-1.609-1.445-3.642-2.224-5.878-2.251l-0.124,0
	c-2.328,0-4.786,0.763-7.516,2.334c-0.116,0.067-0.228,0.138-0.341,0.208l-0.156,0.097c-0.03,0.02-0.062,0.038-0.093,0.057
	C25.503,5.76,25.47,5.779,25.439,5.8c-2.432,1.516-4.709,3.525-6.962,6.144c-0.493,0.573-0.994,1.192-1.488,1.84
	c-0.147,0.193-0.292,0.387-0.435,0.583c-2.293,3.117-4.096,6.479-5.355,9.994c-0.06,0.163-0.117,0.326-0.173,0.49
	c-0.729,2.123-1.25,4.275-1.55,6.398c-0.202,1.408-0.285,2.798-0.249,4.127l0,0.057c0,0.057,0.001,0.115,0.003,0.175
	c0.122,3.219,0.962,5.893,2.5,7.951c-0.294,0.323-0.438,0.747-0.396,1.179c0.083,0.846,0.824,1.472,1.686,1.386
	c0.336-0.032,0.651-0.178,0.899-0.412c0.428,0.318,0.811,0.56,1.168,0.737c1.275,0.648,2.69,0.978,4.206,0.978
	c2.169,0,4.546-0.66,7.067-1.962c0,0-0.9-0.58-0.965-0.549c-0.954,0.455-1.905,0.829-2.833,1.115
	c-2.623,0.806-5.162,0.808-7.229-0.021c-0.401-0.166-0.782-0.362-1.161-0.6c0.184-0.289,0.267-0.629,0.235-0.969
	c-0.082-0.846-0.832-1.482-1.685-1.386c-0.248,0.021-0.487,0.107-0.699,0.248c-0.771-1.159-1.339-2.614-1.688-4.324
	c-0.2-0.988-0.311-2.007-0.34-3.115l-0.003-0.094c-0.001-0.046-0.003-0.091-0.003-0.138c-0.024-1.633,0.141-3.371,0.505-5.312
	c0.267-1.424,0.644-2.891,1.121-4.359l0.155-0.46c1.353-3.97,3.387-7.734,6.047-11.187c0.117-0.153,0.238-0.304,0.358-0.454
	l0.08-0.1c0.699-0.877,1.407-1.698,2.103-2.44c1.862-1.991,3.863-3.647,5.948-4.922c0.05-0.031,0.103-0.062,0.172-0.103
	c0.582-0.349,1.073-0.623,1.548-0.861c2.592-1.298,5.071-1.822,7.369-1.561c2.458,0.279,4.517,1.658,5.796,3.883
	c1.129,1.968,1.727,4.383,1.825,7.384c0.017,0.533,0.013,1.088-0.01,1.735c-0.002,0.064,0.825,0.517,0.825,0.517
	C43.922,15.042,43.656,12.803,43.043,10.74z"/>
</svg>
