<?xml version="1.0" encoding="utf-8"?>
<!-- Generator: Adobe Illustrator 15.0.0, SVG Export Plug-In . SVG Version: 6.00 Build 0)  -->
<!DOCTYPE svg PUBLIC "-//W3C//DTD SVG 1.1//EN" "http://www.w3.org/Graphics/SVG/1.1/DTD/svg11.dtd">
<svg version="1.1" id="New_York_Silhouette" xmlns="http://www.w3.org/2000/svg" xmlns:xlink="http://www.w3.org/1999/xlink"
	 x="0px" y="0px" width="952px" height="143.381px" viewBox="0 0 952 143.381" enable-background="new 0 0 952 143.381"
	 xml:space="preserve">
<g>
	<path fill="#A7A9AC" d="M1042.5,117.381V91.299h-1.25l-1.166-1.168v-3.332l-1.667-1.668v-3.5h-3.084v3.5l-1,1v8.334h-7.75v-3.75h-2
		v2.75H1023v-2.584h-3.25v4.666h-7.084v-3.166h-3.166v3.334h-3.417v-13.25h-5.5v-6.334h-3.5v2.25h-2.25v-2.25h-3.667v3h-3.25v-1.75
		H983.5v3.834h-1.417v-3.834h-5.833v9.834h-3v-0.75h-6.334v7.832h-1.666v-1.082h-1.584v3.416h-3.333v-2h-2.583v1.75h-1.584v-1.166
		h-5.333v3.332h-2.583v-2.582H941v-1.084h-2.167v4.166h-2.417v-6H930v1.25h-4.417v1.75h-1.417v-2.332h-3.833v2.666H917.5v-21.75
		h-4.084v7l-0.75-0.75h-2.833l-1.75,4.084v9h-2.167v-3.084h-3.583v-1.375h-1.208L900,90.631l-3.334-0.666v-5.334l-1.25-1.416
		l-1-5.334l-1-5.166l-0.666,5.334l-0.5,5.25v15.75h-1.584v-8.418l-1.25-1.832h-4.75v-2.334h-2.833v2.584h-4.75l-5,3v3.832h-2.208
		V91.59l-1.625-1.625v-1.834h-3.333v2.416h-2.584v-10.25l-2-1.25h-3.25v-4h-5.416v5.668l-0.666,0.5l0.333,15.5l-2.5,1.166l-2-10.332
		l-1.833-1.334l-1.5-5.5l-2,7.834l-1.5,1.166l-2.5,10h-6.167v-1.5h-6.666v1.834h-9.167v-4h-4.167v-6.668l-2.166-2V74.215
		l-1.334-0.666h-9.5v9.832h-1.166l-0.667-1.166h-3.167v5.5l-1.5,0.334v10.5h-3.5l-2-4.168h-2.5l-2.666,3.75h-8.793v-11h-5V77.006
		l-2.875-2.875h-2.125l-1.5,3.75v9.75h-10.5v2H741.5l-1.188-1.188L737,91.756v3.75h-3.5v-3h-1.625l-3.75,1.125V64.756l-2.375-4.125
		c0,0-0.75-7.875-0.875-9s-2.938-5.938-2.938-5.938c-0.437-5.312-1.5-11.75-1.5-11.75c-1,7.25-1,11.75-1,11.75l-2.062,5.562v37.625
		l-1,0.875v32.125H709.5v-9.625l-2.25-13.125l-3.75-2.875V78.881l-1.375-1.375h-3l-1.5,1.5v8.625H696.5l-0.625-0.625h-3.75
		l-2,13.625h-5v-1.625h-2.375v1.875h-4.625v-2.5h-3.25v2.75H670v-16.75l-1.25-3h-6.625v16.25H651.75v2.625h-4.125v-2.75l-2.625-1.5
		h-2.375v2h-1.5v-2.625L638,91.756h-1.625v2.25h-2v-8.125L633,83.006h-5.375l-2.5,7.375v2.5h-7.25v-3l-1.875-5.5h-3.5l-2.75,1v3.375
		l-5.875-2.125v-3.75l-1.625-1.312h-5.562l-1.562,1.562H592.5v4.625l-2,2.375h-4.25l-1.875-3.375h-5v5.125h-1.25l-1.75-1.75
		L575,79.756l-1.625-4l-1.875,4.5l-0.75,10.625h-1.5v4.625h-3.125v-35.75h-2.375v1.5h-5.5v-1.5h-1.75v2h-6.625v-2h-2.125v11.75h-3.5
		v-8.5h-1.125v1.5h-1.25v-2.5l-2.375-5.125l-2.75,4.75v3.25l0.875,2h-1.25l-2.625,5.375H532v-1.625l0.625-1.25v-2.375l-1-0.5
		L530.5,51.131l-1,15.75l-1.75,1.75l0.25,1.875v3.25h-3.375v12.75h-3.5v-11.75l-3.438-0.312L516,72.756h-2.375l-0.875,2.5h-3.125
		v12.375h-8.5v-1.75l-1-1.875h-8.5v3.375h-4.5v-3.125l-1.375-1.5v-7.75l-1.5-1.5H482l-1.625,1.375h-5l-1.125-1.125h-2l-4.875,4.125
		v9l-4.25,4.125v8.75h-4V78.881L460,77.506v-7.5h-1.125V56.881h-9l-3.375,3.375v10.625l-1.5,0.875v16.188h-1.938l-0.938-0.938
		h-10.25v6.375H422v12.25h-4.5v-27.75l-1.75-3.916h-6.584v3.582h-1.249l-1.167,1.168h-12.666v12.332h-6.75v-1H383v1.668h-4
		l-2.666,3.666h-13V82.715h-2.5L359,77.547h-5.833v-2.5H352l-2.5-5.166h-4.166v6.5h-2l-1,4.334h-3.5v18.166h-1.667V87.715H335v1.666
		h-3v3h-7.666v-2.332h-16.667v1.332h-4.833v3H292v-3.166h-5.166v-12l-1.668-2.834h-2.5l-3,5.334v16.666l-3.5,3.168h-2.332V83.881
		l-1.5-1v-1.666h-11.5v24.5H258V82.381h-5.334l-5.332,3.334v5h-4.667v19.332h-3.5v-7.332H235v-2.334h-2.5v-2.334h-4.333v3h-4v7.5
		l-1.333,1.334v-4.834l-2.167-0.666v-16h-7.333v-1.334h-3v1.834h-6.667v6.5L199,97.047v-8l-2.166-2.666l-5,1v5L191,93.547v21.5
		l-8.5,1v-8.5l-6.666-3v-6.332l-6.334-2v-16.5l-3.166-3h-14.5v31.5H149V80.047l-2-3.166h-15.166v19.334H128.5v-2H126v2.666
		l-2.5,0.666v7.334h-4v-9.5h-3v1.334h-3.166v-1.668H108v6.834h-1.166l-0.334,1.166v17.402h-4.511v-4.963H90.765v-5.058h-8.383
		c0.385-5.732-1.445-5.925-0.627-7.708c0.819-1.783,1.109-2.023-0.289-3.517c-1.397-1.493-1.348-4.818-1.686-6.07
		c-0.338-1.253-0.313-7.106-0.313-9.563s0.289-1.734,1.626-4.083s0.578-1.662-1.048-3.071s-3.18-1.012-2.168-3.396
		s-1.048-2.023-0.47-2.602s0.542-1.156-0.614-1.951s-1.698-1.662-0.434-3.18s0.47-1.697,0.47-1.697
		c-4.697-1.59-4.553-11.418-3.794-21.427s0.145-7.805-0.434-10.804c-0.578-2.998-1.265-5.348-2.782-6.178
		c-1.518-0.832-0.831-1.662-0.831-1.662c3.144-1.807,0.434-2.602,0.434-3.469s-0.036-2.276-1.373-3.144s-3.36,0.289-3.36,0.289
		c0-0.361-1.229-3.107-2.349-4.878s-1.337-4.047-1.843-5.059s-0.578-1.084,0.542-2.168s-0.397-0.759-0.65-1.554
		s0.181-1.12,1.12-2.385s0.072-1.337-2.312-0.939s-1.265,1.265-0.759,2.276s-0.325,1.265-0.325,1.265
		c-1.229-0.181-1.084,0.181-1.084,0.181c-0.506,1.807,1.192,1.554,1.192,1.554c-0.506,1.301-0.614,2.385,0,2.276
		s0.578,1.409,0.506,3.577s0.939,1.662,0.939,1.662c0.361,0.289,0.65-1.554,0.976,1.915s1.915,5.455,1.915,5.455
		c-0.578,0.615-0.578,1.555-0.47,3.396c0.108,1.844,1.373,1.193,2.06,2.133s-0.554,2.047-0.554,2.047
		c-4.433,2.987-2.986,10.021-3.516,12.911s-0.482,11.37-0.482,11.37c-1.59,6.648,1.396,2.891,1.107,6.504
		c-0.288,3.613,2.41,9.394,0,9.586c-2.409,0.193-0.674,2.361-1.637,2.409c-0.963,0.049-2.168,0.241-0.867,2.409
		s-1.156,2.602-1.156,2.602c-4.77,0.723-1.928,3.275-1.397,5.443c0.529,2.168,0.771,5.348-0.097,8.19s0.723,7.082-1.542,9.25
		c-2.265,2.167,0.771,2.794-0.578,3.806c-1.349,1.012,0.193,2.457-0.818,2.938c-1.012,0.482-1.108,3.927-1.108,3.927h-4.119v1.084
		h-1.807v1.229h-0.578v3.686h-12.43v4.624h-8.961l-0.434,1.012H0.915l-0.434-1.734H-7.9l-1.59,1.638h-4.336v1.542H-19.5v21.005h1071
		v-26H1042.5z"/>
</g>
</svg>
